# xmcd CD database file
#
# Track frame offsets:
#	182
#	2577
#	24825
#	41482
#	52502
#	73907
#	92995
#	97782
#	114122
#	132557
#	158412
#	168117
#	189277
#	211797
#	224967
#	251620
#	270097
#	288547
#
# Disc length: 4125 seconds
#
# Revision: 0
# Processed by: cddbd v1.5.1PL0 Copyright (c) Steve Scherf et al.
# Submitted via: CDex 1.51
#
DISCID=e4101b12
DTITLE=Joanie Pallatto and Marshall Vente - Two
DYEAR=1997
DGENRE=Jazz
TTITLE0=Still Crazy
TTITLE1=Still Crazy after All These Years
TTITLE2=The Lady Wants to Know
TTITLE3=Swinging on a Star
TTITLE4=As Time Goes By
TTITLE5=I'll Bet You Thought I'd Never Find You
TTITLE6=Fire
TTITLE7=Light My Fire
TTITLE8=My Baby Just Cares for Me
TTITLE9=Deja Vu
TTITLE10=Nothin' Happened
TTITLE11=That's the Way I've Always Heard it Should Be
TTITLE12=Morning of the Carnival
TTITLE13=My Ship
TTITLE14=Stolen Moments
TTITLE15=Song From M*A*S*H*
TTITLE16=Small Day Tomorrow
TTITLE17=Cantaloupe Island
EXTD=YEAR: 1997
EXTT0=
EXTT1=
EXTT2=
EXTT3=
EXTT4=
EXTT5=
EXTT6=
EXTT7=
EXTT8=
EXTT9=
EXTT10=
EXTT11=
EXTT12=
EXTT13=
EXTT14=
EXTT15=
EXTT16=
EXTT17=
PLAYORDER=
